<svg xmlns="http://www.w3.org/2000/svg" width="116" height="126" viewBox="0 0 116 126" fill="none">
<g clip-path="url(#clip0_66_2)">
<path d="M115.056 66.3478L87.1635 66.3716C87.6216 44.2752 93.3851 41.7621 100.626 41.04L103.418 40.6614L103.398 16.3647L100.179 16.5549C90.7232 17.1413 80.2702 19.0031 73.3033 28.3682C67.1961 36.578 64.512 49.9843 64.5295 70.5607L64.562 108.689L115.092 108.646L115.056 66.3478Z" fill="#808080"/>
<path d="M50.6226 108.701L50.5865 66.4027L23.0661 66.4262C23.5241 44.3298 29.1012 41.8169 36.3421 41.0948L38.9485 40.7163L38.9278 16.4196L35.895 16.6097C26.4393 17.196 15.8928 19.0579 8.9259 28.4231C2.8193 36.6328 0.042265 50.0392 0.0597946 70.6156L0.0922769 108.744L50.6226 108.701Z" fill="#808080"/>
</g>
<defs>
<clipPath id="clip0_66_2">
<rect width="115" height="125" fill="white" transform="translate(115.106 125) rotate(179.951)"/>
</clipPath>
</defs>
</svg>