<svg xmlns="http://www.w3.org/2000/svg" width="229" height="51" viewBox="0 0 229 51" fill="none">
<path fill-rule="evenodd" clip-rule="evenodd" d="M180 0.938999C180 1.802 204.899 1.249 205.917 0.363001C206.146 0.163001 200.408 0 193.167 0C185.629 0 180 0.400999 180 0.938999ZM224.25 0.688999C225.213 0.940999 226.787 0.940999 227.75 0.688999C228.713 0.437999 227.925 0.232 226 0.232C224.075 0.232 223.287 0.437999 224.25 0.688999ZM64.25 1.689C65.213 1.941 66.787 1.941 67.75 1.689C68.713 1.438 67.925 1.232 66 1.232C64.075 1.232 63.288 1.438 64.25 1.689ZM0 25.861C0 48.156 0.134 50.006 1.75 50.074C2.712 50.114 48.95 50.37 104.5 50.643C184.101 51.033 208.042 50.859 217.5 49.819C227.763 48.691 228.849 48.413 225 47.9L220.5 47.3L224.75 47.15L229 47V25V3L215.25 2.936C207.688 2.901 199.475 2.851 197 2.826C181.91 2.67 167.767 3.285 170 4C172.35 4.753 172.302 4.807 169.191 4.9C167.371 4.955 166.105 4.64 166.376 4.2C166.648 3.76 142.488 3.414 112.686 3.432C82.883 3.45 45.337 3.072 29.25 2.593L0 1.723V25.861ZM164.729 4.604C164.397 4.936 163.534 4.972 162.813 4.683C162.015 4.364 162.252 4.127 163.417 4.079C164.471 4.036 165.061 4.272 164.729 4.604ZM106.729 5.604C106.397 5.936 105.534 5.972 104.813 5.683C104.015 5.364 104.252 5.127 105.417 5.079C106.471 5.036 107.061 5.272 106.729 5.604ZM133.75 5.735C131.137 5.941 126.862 5.941 124.25 5.735C121.638 5.529 123.775 5.36 129 5.36C134.225 5.36 136.363 5.529 133.75 5.735ZM148.728 5.73C146.653 5.946 143.503 5.943 141.728 5.722C139.952 5.501 141.65 5.324 145.5 5.328C149.35 5.333 150.802 5.513 148.728 5.73ZM122.371 37.876C123.889 38.472 123.489 38.836 120.255 39.805C118.062 40.462 115.547 41 114.665 41C112.316 41 113.728 38.203 116.335 37.695C119.613 37.055 120.339 37.077 122.371 37.876ZM99 40C99 40.55 97.987 40.968 96.75 40.93C94.603 40.863 94.592 40.82 96.5 40C97.6 39.527 98.612 39.109 98.75 39.07C98.888 39.032 99 39.45 99 40ZM165.362 41.5C165.678 42.325 165.501 43 164.969 43C164.436 43 164 42.325 164 41.5C164 40.675 164.177 40 164.393 40C164.609 40 165.045 40.675 165.362 41.5ZM74.729 41.604C74.397 41.936 73.534 41.972 72.813 41.683C72.015 41.364 72.252 41.127 73.417 41.079C74.471 41.036 75.061 41.272 74.729 41.604ZM183.5 42C183.845 42.558 183.097 42.993 181.809 42.985C179.951 42.972 179.793 42.78 181 42C182.861 40.798 182.757 40.798 183.5 42ZM217 42.442C217.825 42.621 213.775 42.747 208 42.721C200.141 42.686 198.883 42.526 203 42.087C208.13 41.539 213.476 41.675 217 42.442ZM91.25 42.662C90.563 42.94 89.438 42.94 88.75 42.662C88.063 42.385 88.625 42.158 90 42.158C91.375 42.158 91.938 42.385 91.25 42.662ZM97.527 42.956C97.202 43.482 96.275 43.659 95.468 43.349C93.401 42.556 93.644 42 96.059 42C97.191 42 97.852 42.43 97.527 42.956ZM123.887 42.446C123.118 43.215 115.09 43.423 114.361 42.694C113.979 42.312 116.067 42 119 42C121.933 42 124.132 42.201 123.887 42.446ZM137.808 42.525C137.021 43.312 130.091 43.424 129.329 42.662C128.965 42.298 130.842 42 133.5 42C136.158 42 138.097 42.236 137.808 42.525ZM173.25 42.706C172.012 42.944 169.988 42.944 168.75 42.706C167.512 42.467 168.525 42.272 171 42.272C173.475 42.272 174.488 42.467 173.25 42.706Z" fill="#fff"/>
</svg>