<svg xmlns="http://www.w3.org/2000/svg" width="169" height="65" viewBox="0 0 169 65" fill="none">
<path d="M1 64.5L23.4972 1H167.71L154.443 64.5H1Z" fill="#CC142C" stroke="white"/>
<path d="M53.9506 32.2346C54.8256 32.2658 55.5092 32.2814 56.0014 32.2814C59.353 32.2619 61.2084 32.2463 61.5678 32.2346C61.6186 32.6252 61.7182 32.9963 61.8666 33.3478C62.0151 33.6955 62.2045 34.0666 62.435 34.4611C62.4037 34.5275 62.3354 34.5803 62.2299 34.6193C62.0893 34.3537 61.9194 34.1174 61.7202 33.9103C61.5209 33.7033 61.269 33.508 60.9643 33.3244C60.6635 33.1408 60.2866 32.9904 59.8334 32.8732C59.3842 32.756 58.8705 32.6779 58.2924 32.6389H56.6752C56.6245 34.2912 56.5991 35.5353 56.5991 36.3713H58.269C58.3823 36.3713 58.4877 36.3635 58.5854 36.3478C58.687 36.3283 58.7807 36.2971 58.8666 36.2541C58.9526 36.2072 59.0287 36.1642 59.0952 36.1252C59.1655 36.0822 59.2358 36.0197 59.3061 35.9377C59.3764 35.8517 59.435 35.7814 59.4819 35.7267C59.5287 35.6682 59.5854 35.5803 59.6518 35.4631C59.7182 35.3459 59.769 35.2541 59.8041 35.1877C59.8393 35.1213 59.892 35.0178 59.9623 34.8771C60.0366 34.7365 60.0932 34.631 60.1323 34.5607C60.2534 34.6076 60.3276 34.6584 60.3549 34.7131C60.1909 35.0021 60.0522 35.3224 59.9389 35.674C59.8256 36.0256 59.769 36.3185 59.769 36.5529C59.769 37.1076 59.9643 37.7189 60.3549 38.3869C60.3237 38.4494 60.2495 38.5021 60.1323 38.5451C60.0893 38.467 60.0287 38.3557 59.9506 38.2111C59.8764 38.0627 59.8178 37.9494 59.7748 37.8713C59.7319 37.7932 59.6733 37.6935 59.5991 37.5724C59.5248 37.4514 59.4584 37.3576 59.3998 37.2912C59.3452 37.2248 59.2729 37.1506 59.183 37.0685C59.0971 36.9865 59.0112 36.926 58.9252 36.8869C58.8393 36.8439 58.7397 36.8088 58.6264 36.7814C58.517 36.7502 58.3979 36.7346 58.269 36.7346H56.5991C56.5991 37.3557 56.6205 38.6076 56.6635 40.4904H58.5327C59.1108 40.4514 59.6245 40.3732 60.0737 40.256C60.5268 40.1389 60.9037 39.9885 61.2045 39.8049C61.5092 39.6213 61.7612 39.426 61.9604 39.2189C62.1596 39.0119 62.3295 38.7756 62.4702 38.5099C62.5756 38.549 62.644 38.5998 62.6752 38.6623C62.6557 38.7014 62.6049 38.7951 62.5229 38.9435C62.4409 39.092 62.3862 39.1935 62.3588 39.2482C62.3315 39.299 62.2846 39.3908 62.2182 39.5236C62.1557 39.6525 62.1088 39.758 62.0776 39.84C62.0463 39.9182 62.0092 40.0178 61.9662 40.1389C61.9272 40.2599 61.894 40.3791 61.8666 40.4963C61.8432 40.6096 61.8237 40.7267 61.808 40.8478H56.6635C55.6049 40.8478 54.6967 40.8596 53.9389 40.883C53.9233 40.8361 53.9155 40.7971 53.9155 40.7658C53.9155 40.7385 53.9233 40.6857 53.9389 40.6076C54.1186 40.592 54.2631 40.5764 54.3725 40.5607C54.4858 40.5412 54.6225 40.5119 54.7827 40.4728C54.9467 40.4338 55.0717 40.3791 55.1577 40.3088C55.2436 40.2346 55.2885 40.1467 55.2924 40.0451C55.3393 38.8224 55.3627 37.59 55.3627 36.3478C55.3627 35.0822 55.3432 33.9904 55.3041 33.0724C55.3002 32.9709 55.2553 32.8849 55.1694 32.8146C55.0834 32.7404 54.9584 32.6838 54.7944 32.6447C54.6342 32.6057 54.4975 32.5783 54.3842 32.5627C54.2748 32.5432 54.1303 32.5256 53.9506 32.5099C53.935 32.4396 53.9272 32.3908 53.9272 32.3635C53.9272 32.34 53.935 32.2971 53.9506 32.2346ZM63.3725 32.2346C64.2475 32.2658 64.9272 32.2814 65.4116 32.2814C65.8959 32.2814 66.5756 32.2658 67.4506 32.2346C67.4662 32.2971 67.4741 32.34 67.4741 32.3635C67.4741 32.3908 67.4662 32.4396 67.4506 32.5099C67.2709 32.5256 67.1245 32.5432 67.0112 32.5627C66.9018 32.5783 66.7651 32.6057 66.601 32.6447C66.4409 32.6838 66.3178 32.7404 66.2319 32.8146C66.1459 32.8849 66.101 32.9709 66.0971 33.0724C66.0463 34.4006 66.0209 35.6369 66.0209 36.7814C66.0209 37.3713 66.0424 38.6076 66.0854 40.4904H67.8959C68.4702 40.4514 68.9838 40.3674 69.437 40.2385C69.8901 40.1096 70.267 39.9455 70.5678 39.7463C70.8725 39.5432 71.1225 39.3342 71.3178 39.1193C71.517 38.9006 71.6889 38.6564 71.8334 38.3869C71.935 38.426 72.0014 38.4787 72.0327 38.5451C71.8725 38.842 71.7475 39.0822 71.6577 39.2658C71.5717 39.4494 71.476 39.6916 71.3705 39.9924C71.269 40.2892 71.2026 40.5744 71.1713 40.8478H66.0854C65.0268 40.8478 64.1186 40.8596 63.3608 40.883C63.3452 40.8361 63.3373 40.7971 63.3373 40.7658C63.3373 40.7385 63.3452 40.6857 63.3608 40.6076C63.5405 40.592 63.685 40.5764 63.7944 40.5607C63.9077 40.5412 64.0444 40.5119 64.2045 40.4728C64.3686 40.4338 64.4936 40.3791 64.5795 40.3088C64.6655 40.2346 64.7104 40.1467 64.7143 40.0451C64.7612 38.8224 64.7846 37.59 64.7846 36.3478C64.7846 35.0822 64.7651 33.9904 64.726 33.0724C64.7221 32.9709 64.6772 32.8849 64.5912 32.8146C64.5053 32.7404 64.3803 32.6838 64.2162 32.6447C64.0561 32.6057 63.9194 32.5783 63.8061 32.5627C63.6967 32.5432 63.5522 32.5256 63.3725 32.5099C63.3569 32.4396 63.3491 32.3908 63.3491 32.3635C63.3491 32.3244 63.3569 32.2814 63.3725 32.2346ZM80.6166 32.0412C80.9252 32.0412 81.2319 32.0627 81.5366 32.1057C81.8452 32.1447 82.1401 32.1935 82.4213 32.2521C82.7065 32.3068 82.976 32.3615 83.2299 32.4162C83.4838 32.4709 83.7123 32.5099 83.9155 32.5334C83.8686 32.674 83.8452 32.9221 83.8452 33.2775C83.8452 33.9689 83.9487 34.5685 84.1557 35.0764C84.1323 35.1467 84.06 35.1896 83.9389 35.2053L83.687 34.6662C83.562 34.3967 83.4116 34.131 83.2358 33.8693C83.06 33.6037 82.8491 33.3674 82.603 33.1603C82.3569 32.9494 82.0698 32.7795 81.7416 32.6506C81.4174 32.5217 81.0424 32.4572 80.6166 32.4572C80.2495 32.4572 79.9233 32.5178 79.6381 32.6389C79.353 32.7599 79.103 32.924 78.8881 33.131C78.6733 33.3342 78.4916 33.5724 78.3432 33.8459C78.1948 34.1154 78.0737 34.4025 77.9799 34.7072C77.8901 35.0119 77.8237 35.3244 77.7807 35.6447C77.7416 35.965 77.7221 36.2756 77.7221 36.5764C77.7221 37.0764 77.7866 37.5549 77.9155 38.0119C78.0483 38.4689 78.2534 38.8732 78.5307 39.2248C78.808 39.5724 79.1596 39.8498 79.5854 40.0568C80.0151 40.2639 80.5268 40.3674 81.1205 40.3674C82.2573 40.3674 83.1166 40.0119 83.6987 39.301C83.7612 39.301 83.812 39.3185 83.851 39.3537C83.894 39.3889 83.9155 39.4318 83.9155 39.4826C83.728 39.7599 83.4995 40.0002 83.2299 40.2033C82.9643 40.4064 82.6811 40.5744 82.3803 40.7072C82.0795 40.8361 81.7748 40.9318 81.4662 40.9943C81.1616 41.0568 80.8784 41.0881 80.6166 41.0881C80.3315 41.0881 80.0229 41.0568 79.6909 40.9943C79.3627 40.9357 79.0327 40.8361 78.7006 40.6955C78.3725 40.5549 78.0561 40.3713 77.7514 40.1447C77.4506 39.9142 77.183 39.633 76.9487 39.301C76.7143 38.965 76.5268 38.5724 76.3862 38.1232C76.2455 37.674 76.1752 37.1584 76.1752 36.5764C76.1752 35.9904 76.2455 35.4728 76.3862 35.0236C76.5268 34.5705 76.7143 34.176 76.9487 33.84C77.187 33.5041 77.4584 33.2228 77.7631 32.9963C78.0717 32.7658 78.3901 32.5803 78.7182 32.4396C79.0463 32.2951 79.3745 32.1935 79.7026 32.1349C80.0307 32.0724 80.3354 32.0412 80.6166 32.0412ZM89.1245 32.1467C89.183 32.1037 89.2455 32.0764 89.312 32.0646L92.517 40.0685C92.5561 40.1662 92.6205 40.2502 92.7104 40.3205C92.8002 40.3869 92.9116 40.4396 93.0444 40.4787C93.1811 40.5139 93.2983 40.5412 93.3959 40.5607C93.4975 40.5764 93.6205 40.592 93.7651 40.6076C93.7807 40.6701 93.7885 40.7228 93.7885 40.7658C93.7885 40.8127 93.7807 40.8557 93.7651 40.8947C92.9213 40.8635 92.2905 40.8478 91.8725 40.8478C91.4194 40.8478 90.7631 40.8635 89.9037 40.8947C89.8881 40.8478 89.8803 40.801 89.8803 40.7541C89.8803 40.7033 89.8881 40.6545 89.9037 40.6076C90.6928 40.5217 91.0873 40.3732 91.0873 40.1623C91.0873 40.0959 91.0795 40.0275 91.0639 39.9572L90.2143 37.7775C89.9565 37.7697 89.6088 37.7658 89.1713 37.7658C88.9643 37.7658 88.4272 37.7736 87.56 37.7892L86.6635 40.0685V40.1389C86.6635 40.1779 86.6694 40.215 86.6811 40.2502C86.6967 40.2853 86.7202 40.3166 86.7514 40.3439C86.7866 40.3713 86.8198 40.3947 86.851 40.4142C86.8823 40.4338 86.9252 40.4533 86.9799 40.4728C87.0385 40.4885 87.0873 40.5021 87.1264 40.5139C87.1694 40.5217 87.226 40.5314 87.2963 40.5432C87.3705 40.5549 87.4272 40.5646 87.4662 40.5724C87.5053 40.5764 87.562 40.5822 87.6362 40.59C87.7143 40.5978 87.769 40.6037 87.8002 40.6076C87.8159 40.6701 87.8237 40.7228 87.8237 40.7658C87.8237 40.7892 87.8159 40.8322 87.8002 40.8947C86.9252 40.8635 86.433 40.8478 86.3237 40.8478C86.1127 40.8478 85.5698 40.8635 84.6948 40.8947C84.6791 40.8478 84.6713 40.801 84.6713 40.7541C84.6713 40.7033 84.6791 40.6545 84.6948 40.6076C85.5073 40.5139 85.9702 40.3146 86.0834 40.0099L88.603 33.6584L88.4741 33.3127C88.6967 33.1642 88.851 33.0041 88.937 32.8322C89.0268 32.6603 89.0893 32.4318 89.1245 32.1467ZM89.1713 37.3088C89.5307 37.3088 89.8139 37.3049 90.0209 37.2971L88.9077 34.4142H88.8842L87.7651 37.2853C88.1323 37.301 88.601 37.3088 89.1713 37.3088ZM94.4858 32.2463C95.142 32.2697 95.8256 32.2814 96.5366 32.2814H97.2104C97.4955 32.2775 97.9877 32.2756 98.687 32.2756C99.3901 32.2717 99.9897 32.2678 100.486 32.2639C100.986 32.2599 101.482 32.2502 101.974 32.2346C102.005 32.5041 102.072 32.7853 102.173 33.0783C102.275 33.3674 102.372 33.6057 102.466 33.7932C102.56 33.9767 102.683 34.1994 102.835 34.4611C102.804 34.5275 102.736 34.5803 102.63 34.6193C102.49 34.3537 102.32 34.1174 102.121 33.9103C101.921 33.7033 101.669 33.508 101.365 33.3244C101.064 33.1408 100.687 32.9904 100.234 32.8732C99.7846 32.756 99.2729 32.6779 98.6987 32.6389H97.2104C97.1596 34.3264 97.1342 35.6017 97.1342 36.465H98.8041C98.9018 36.465 98.9936 36.4572 99.0795 36.4416C99.1655 36.4221 99.2455 36.3908 99.3198 36.3478C99.3979 36.3049 99.4643 36.2639 99.519 36.2248C99.5776 36.1818 99.6381 36.1193 99.7006 36.0373C99.767 35.9514 99.8198 35.881 99.8588 35.8264C99.8979 35.7717 99.9467 35.6857 100.005 35.5685C100.064 35.4474 100.109 35.3557 100.14 35.2932C100.171 35.2307 100.218 35.1271 100.281 34.9826C100.347 34.8381 100.396 34.7326 100.427 34.6662C100.564 34.7248 100.638 34.7736 100.65 34.8127C100.419 35.4142 100.304 36.0256 100.304 36.6467C100.304 37.2639 100.419 37.8771 100.65 38.4865C100.622 38.5412 100.548 38.592 100.427 38.6389C100.189 38.0646 100.007 37.6799 99.8823 37.4846C99.5932 37.051 99.2338 36.8322 98.8041 36.8283H97.1342C97.1342 37.6682 97.1557 38.7404 97.1987 40.0451C97.2026 40.1467 97.2475 40.2346 97.3334 40.3088C97.4194 40.3791 97.5424 40.4338 97.7026 40.4728C97.8666 40.5119 98.0034 40.5412 98.1127 40.5607C98.226 40.5764 98.3725 40.592 98.5522 40.6076C98.5678 40.6857 98.5756 40.7385 98.5756 40.7658C98.5756 40.7971 98.5678 40.8361 98.5522 40.883C97.8881 40.8596 97.2084 40.8478 96.5131 40.8478C95.81 40.8478 95.1303 40.8596 94.4741 40.883C94.4584 40.8361 94.4506 40.7971 94.4506 40.7658C94.4506 40.7385 94.4584 40.6857 94.4741 40.6076C94.5912 40.5959 94.685 40.5861 94.7553 40.5783C94.8256 40.5705 94.9213 40.5568 95.0424 40.5373C95.1674 40.5178 95.267 40.4963 95.3412 40.4728C95.4194 40.4455 95.4995 40.4123 95.5815 40.3732C95.6635 40.3342 95.7241 40.2873 95.7631 40.2326C95.8061 40.1779 95.8276 40.1154 95.8276 40.0451C95.8745 38.8224 95.8979 37.59 95.8979 36.3478C95.8979 35.0822 95.8784 33.9904 95.8393 33.0724C95.8354 32.9709 95.7905 32.8849 95.7045 32.8146C95.6225 32.7443 95.4975 32.6896 95.3295 32.6506C95.1616 32.6115 95.0268 32.5861 94.9252 32.5744C94.8237 32.5588 94.6772 32.5412 94.4858 32.5217C94.4702 32.4514 94.4623 32.4025 94.4623 32.3752C94.4623 32.3517 94.4702 32.3088 94.4858 32.2463ZM103.298 32.2346C104.173 32.2658 104.857 32.2814 105.349 32.2814C108.701 32.2619 110.556 32.2463 110.915 32.2346C110.966 32.6252 111.066 32.9963 111.214 33.3478C111.363 33.6955 111.552 34.0666 111.783 34.4611C111.751 34.5275 111.683 34.5803 111.578 34.6193C111.437 34.3537 111.267 34.1174 111.068 33.9103C110.869 33.7033 110.617 33.508 110.312 33.3244C110.011 33.1408 109.634 32.9904 109.181 32.8732C108.732 32.756 108.218 32.6779 107.64 32.6389H106.023C105.972 34.2912 105.947 35.5353 105.947 36.3713H107.617C107.73 36.3713 107.835 36.3635 107.933 36.3478C108.035 36.3283 108.128 36.2971 108.214 36.2541C108.3 36.2072 108.376 36.1642 108.443 36.1252C108.513 36.0822 108.583 36.0197 108.654 35.9377C108.724 35.8517 108.783 35.7814 108.83 35.7267C108.876 35.6682 108.933 35.5803 108.999 35.4631C109.066 35.3459 109.117 35.2541 109.152 35.1877C109.187 35.1213 109.24 35.0178 109.31 34.8771C109.384 34.7365 109.441 34.631 109.48 34.5607C109.601 34.6076 109.675 34.6584 109.703 34.7131C109.539 35.0021 109.4 35.3224 109.287 35.674C109.173 36.0256 109.117 36.3185 109.117 36.5529C109.117 37.1076 109.312 37.7189 109.703 38.3869C109.671 38.4494 109.597 38.5021 109.48 38.5451C109.437 38.467 109.376 38.3557 109.298 38.2111C109.224 38.0627 109.165 37.9494 109.122 37.8713C109.08 37.7932 109.021 37.6935 108.947 37.5724C108.872 37.4514 108.806 37.3576 108.747 37.2912C108.693 37.2248 108.621 37.1506 108.531 37.0685C108.445 36.9865 108.359 36.926 108.273 36.8869C108.187 36.8439 108.087 36.8088 107.974 36.7814C107.865 36.7502 107.746 36.7346 107.617 36.7346H105.947C105.947 37.3557 105.968 38.6076 106.011 40.4904H107.88C108.458 40.4514 108.972 40.3732 109.421 40.256C109.874 40.1389 110.251 39.9885 110.552 39.8049C110.857 39.6213 111.109 39.426 111.308 39.2189C111.507 39.0119 111.677 38.7756 111.818 38.5099C111.923 38.549 111.992 38.5998 112.023 38.6623C112.003 38.7014 111.953 38.7951 111.871 38.9435C111.789 39.092 111.734 39.1935 111.706 39.2482C111.679 39.299 111.632 39.3908 111.566 39.5236C111.503 39.6525 111.456 39.758 111.425 39.84C111.394 39.9182 111.357 40.0178 111.314 40.1389C111.275 40.2599 111.242 40.3791 111.214 40.4963C111.191 40.6096 111.171 40.7267 111.156 40.8478H106.011C104.953 40.8478 104.044 40.8596 103.287 40.883C103.271 40.8361 103.263 40.7971 103.263 40.7658C103.263 40.7385 103.271 40.6857 103.287 40.6076C103.466 40.592 103.611 40.5764 103.72 40.5607C103.833 40.5412 103.97 40.5119 104.13 40.4728C104.294 40.4338 104.419 40.3791 104.505 40.3088C104.591 40.2346 104.636 40.1467 104.64 40.0451C104.687 38.8224 104.71 37.59 104.71 36.3478C104.71 35.0822 104.691 33.9904 104.652 33.0724C104.648 32.9709 104.603 32.8849 104.517 32.8146C104.431 32.7404 104.306 32.6838 104.142 32.6447C103.982 32.6057 103.845 32.5783 103.732 32.5627C103.622 32.5432 103.478 32.5256 103.298 32.5099C103.283 32.4396 103.275 32.3908 103.275 32.3635C103.275 32.34 103.283 32.2971 103.298 32.2346Z" fill="white"/>
<path d="M50.319 34.6134C50.179 37.0012 48.387 39.4549 42.339 30.1671C36.291 20.8793 38.419 29.2613 40.239 34.6134L29.319 32.8843L38.979 44C41.079 41.5298 46.077 37.3306 49.269 40.2948" stroke="white"/>
<path d="M121.162 18C124.319 18 120.03 13.1161 119.881 12.4444C119.788 12.0225 118.815 9.64756 119.664 9.44841C121.296 9.06562 121.597 9.72093 121.597 8" stroke="white" stroke-width="2" stroke-linecap="round"/>
<path d="M129.162 18C132.319 18 128.03 13.1161 127.881 12.4444C127.788 12.0225 126.815 9.64756 127.664 9.44841C129.296 9.06562 129.597 9.72093 129.597 8" stroke="white" stroke-width="2" stroke-linecap="round"/>
<path d="M139.162 18C142.319 18 138.03 13.1161 137.881 12.4444C137.788 12.0225 136.815 9.64756 137.664 9.44841C139.296 9.06562 139.597 9.72093 139.597 8" stroke="white" stroke-width="2" stroke-linecap="round"/>
<path d="M113.319 20L125.065 52H136.531L146.319 20H113.319Z" fill="#CC142C" stroke="white"/>
<path d="M106.292 31.0921L104.53 28.4482L106.098 28.4549L107.473 31.0971L106.292 31.0921Z" fill="white"/>
</svg>